<svg width="201" height="55" viewBox="0 0 201 55" fill="none" xmlns="http://www.w3.org/2000/svg">
<path d="M64.2961 19.028C64.2814 19.0006 64.1088 18.9207 64.2077 18.8996C64.1993 18.8933 64.1867 18.8912 64.1782 18.887C64.1046 18.927 64.0309 18.9165 64.0057 18.8281C63.3532 18.8281 62.4272 19.0427 61.8316 19.3079C61.579 19.4216 61.2886 19.5563 61.4654 19.8867C61.4885 19.9288 61.5306 19.9161 61.579 19.9161C62.2188 19.9161 62.6377 19.8593 63.2627 19.7415C63.5995 19.6783 64.0099 19.6425 64.3319 19.5499C64.3908 19.4089 64.3656 19.1585 64.2961 19.0259V19.028ZM62.6187 19.6489C62.5535 19.6552 62.4525 19.6804 62.3977 19.6404C62.6145 19.5794 62.8734 19.5542 63.0986 19.5457C63.1259 19.5457 63.1828 19.5289 63.1912 19.5605C63.0144 19.611 62.806 19.632 62.6208 19.6468L62.6187 19.6489ZM63.852 19.0112C63.8668 18.9775 63.9257 19.0048 63.911 19.0385C63.8962 19.0722 63.8373 19.0448 63.852 19.0112ZM63.871 19.4531C63.8457 19.3879 63.8057 19.1459 63.8331 19.0932C63.8352 19.0869 63.871 19.0701 63.8815 19.0869C63.8899 19.108 63.9004 19.3374 63.9025 19.3858C63.9025 19.4258 63.9362 19.4405 63.871 19.4531Z" fill="white"/>
<path d="M71.3297 19.0952C71.3171 19.1058 71.3087 19.1394 71.3192 19.1584C71.3276 19.1731 71.5802 19.3688 71.597 19.3752C71.6496 19.3962 72.1548 19.1689 72.1758 19.1205C72.1968 19.0721 72.1442 19.0868 72.1295 19.0826C72.0432 19.051 71.7507 18.9058 71.6959 18.9311C71.677 18.9395 71.6665 18.9669 71.6581 18.9711C71.5823 19.0005 71.3803 19.0595 71.3319 19.0952H71.3297Z" fill="white"/>
<path d="M70.8544 19.2532C70.8439 19.2763 71.0291 19.5099 71.0838 19.5247C71.1954 19.5562 71.4101 19.4615 71.5174 19.4215L71.187 19.1521L70.8544 19.2511V19.2532Z" fill="white"/>
<path d="M71.8516 18.6701C71.9274 18.7795 71.7717 18.7964 71.879 18.8742C71.9043 18.8911 72.2494 19.0468 72.2726 19.0489C72.3231 19.0531 72.4241 18.9247 72.4052 18.8721C72.3841 18.8174 71.8685 18.6301 71.8537 18.6722L71.8516 18.6701Z" fill="white"/>
<path d="M64.2396 18.9017C64.1385 18.9228 64.3111 19.0028 64.3258 19.0301C64.3974 19.1606 64.4206 19.4111 64.3637 19.5521C64.37 19.5521 64.3785 19.5458 64.3848 19.5436L64.4058 19.5352C64.5005 19.3942 64.429 19.068 64.3174 18.9438C64.2838 18.9059 64.2543 18.9123 64.2375 18.8996L64.2396 18.9017Z" fill="white"/>
<path d="M57.7909 24.7461C57.7888 24.7924 57.6899 24.763 57.6688 24.7566C57.6141 24.7377 57.5447 24.7103 57.5278 24.6472C57.6331 24.6725 57.7172 24.723 57.7909 24.7461Z" fill="white"/>
<path d="M64.3754 19.533L64.355 19.5411C64.355 19.5411 64.355 19.5616 64.3754 19.533Z" fill="white"/>
<path d="M63.9763 22.7298L61.8443 23.8705C61.857 23.9105 61.8506 23.921 61.8927 23.9021C62.0295 23.8389 62.1579 23.7484 62.2842 23.6811C62.8419 23.3822 63.4017 23.0855 63.9595 22.7866C63.9868 22.7719 64.0226 22.7445 63.9763 22.7319V22.7298ZM64.553 22.4099L63.991 22.7003C64.0016 22.7656 64.0395 22.7361 64.0836 22.7151C64.2352 22.6393 64.3888 22.5509 64.5382 22.4667C64.574 22.4457 64.5803 22.4646 64.5551 22.412L64.553 22.4099ZM64.553 22.4099L63.991 22.7003C64.0016 22.7656 64.0395 22.7361 64.0836 22.7151C64.2352 22.6393 64.3888 22.5509 64.5382 22.4667C64.574 22.4457 64.5803 22.4646 64.5551 22.412L64.553 22.4099ZM63.9763 22.7298L61.8443 23.8705C61.857 23.9105 61.8506 23.921 61.8927 23.9021C62.0295 23.8389 62.1579 23.7484 62.2842 23.6811C62.8419 23.3822 63.4017 23.0855 63.9595 22.7866C63.9868 22.7719 64.0226 22.7445 63.9763 22.7319V22.7298ZM63.9763 22.7298L61.8443 23.8705C61.857 23.9105 61.8506 23.921 61.8927 23.9021C62.0295 23.8389 62.1579 23.7484 62.2842 23.6811C62.8419 23.3822 63.4017 23.0855 63.9595 22.7866C63.9868 22.7719 64.0226 22.7445 63.9763 22.7319V22.7298ZM64.553 22.4099L63.991 22.7003C64.0016 22.7656 64.0395 22.7361 64.0836 22.7151C64.2352 22.6393 64.3888 22.5509 64.5382 22.4667C64.574 22.4457 64.5803 22.4646 64.5551 22.412L64.553 22.4099ZM64.553 22.4099L63.991 22.7003C64.0016 22.7656 64.0395 22.7361 64.0836 22.7151C64.2352 22.6393 64.3888 22.5509 64.5382 22.4667C64.574 22.4457 64.5803 22.4646 64.5551 22.412L64.553 22.4099ZM63.9763 22.7298L61.8443 23.8705C61.857 23.9105 61.8506 23.921 61.8927 23.9021C62.0295 23.8389 62.1579 23.7484 62.2842 23.6811C62.8419 23.3822 63.4017 23.0855 63.9595 22.7866C63.9868 22.7719 64.0226 22.7445 63.9763 22.7319V22.7298ZM63.9763 22.7298L61.8443 23.8705C61.857 23.9105 61.8506 23.921 61.8927 23.9021C62.0295 23.8389 62.1579 23.7484 62.2842 23.6811C62.8419 23.3822 63.4017 23.0855 63.9595 22.7866C63.9868 22.7719 64.0226 22.7445 63.9763 22.7319V22.7298ZM64.553 22.4099L63.991 22.7003C64.0016 22.7656 64.0395 22.7361 64.0836 22.7151C64.2352 22.6393 64.3888 22.5509 64.5382 22.4667C64.574 22.4457 64.5803 22.4646 64.5551 22.412L64.553 22.4099ZM64.553 22.4099L63.991 22.7003C64.0016 22.7656 64.0395 22.7361 64.0836 22.7151C64.2352 22.6393 64.3888 22.5509 64.5382 22.4667C64.574 22.4457 64.5803 22.4646 64.5551 22.412L64.553 22.4099ZM63.9763 22.7298L61.8443 23.8705C61.857 23.9105 61.8506 23.921 61.8927 23.9021C62.0295 23.8389 62.1579 23.7484 62.2842 23.6811C62.8419 23.3822 63.4017 23.0855 63.9595 22.7866C63.9868 22.7719 64.0226 22.7445 63.9763 22.7319V22.7298ZM63.9763 22.7298L61.8443 23.8705C61.857 23.9105 61.8506 23.921 61.8927 23.9021C62.0295 23.8389 62.1579 23.7484 62.2842 23.6811C62.8419 23.3822 63.4017 23.0855 63.9595 22.7866C63.9868 22.7719 64.0226 22.7445 63.9763 22.7319V22.7298ZM64.553 22.4099L63.991 22.7003C64.0016 22.7656 64.0395 22.7361 64.0836 22.7151C64.2352 22.6393 64.3888 22.5509 64.5382 22.4667C64.574 22.4457 64.5803 22.4646 64.5551 22.412L64.553 22.4099ZM64.553 22.4099L63.991 22.7003C64.0016 22.7656 64.0395 22.7361 64.0836 22.7151C64.2352 22.6393 64.3888 22.5509 64.5382 22.4667C64.574 22.4457 64.5803 22.4646 64.5551 22.412L64.553 22.4099ZM63.9763 22.7298L61.8443 23.8705C61.857 23.9105 61.8506 23.921 61.8927 23.9021C62.0295 23.8389 62.1579 23.7484 62.2842 23.6811C62.8419 23.3822 63.4017 23.0855 63.9595 22.7866C63.9868 22.7719 64.0226 22.7445 63.9763 22.7319V22.7298ZM63.9763 22.7298L61.8443 23.8705C61.857 23.9105 61.8506 23.921 61.8927 23.9021C62.0295 23.8389 62.1579 23.7484 62.2842 23.6811C62.8419 23.3822 63.4017 23.0855 63.9595 22.7866C63.9868 22.7719 64.0226 22.7445 63.9763 22.7319V22.7298ZM64.553 22.4099L63.991 22.7003C64.0016 22.7656 64.0395 22.7361 64.0836 22.7151C64.2352 22.6393 64.3888 22.5509 64.5382 22.4667C64.574 22.4457 64.5803 22.4646 64.5551 22.412L64.553 22.4099ZM64.553 22.4099L63.991 22.7003C64.0016 22.7656 64.0395 22.7361 64.0836 22.7151C64.2352 22.6393 64.3888 22.5509 64.5382 22.4667C64.574 22.4457 64.5803 22.4646 64.5551 22.412L64.553 22.4099ZM63.9763 22.7298L61.8443 23.8705C61.857 23.9105 61.8506 23.921 61.8927 23.9021C62.0295 23.8389 62.1579 23.7484 62.2842 23.6811C62.8419 23.3822 63.4017 23.0855 63.9595 22.7866C63.9868 22.7719 64.0226 22.7445 63.9763 22.7319V22.7298ZM63.9763 22.7298L61.8443 23.8705C61.857 23.9105 61.8506 23.921 61.8927 23.9021C62.0295 23.8389 62.1579 23.7484 62.2842 23.6811C62.8419 23.3822 63.4017 23.0855 63.9595 22.7866C63.9868 22.7719 64.0226 22.7445 63.9763 22.7319V22.7298ZM64.553 22.4099L63.991 22.7003C64.0016 22.7656 64.0395 22.7361 64.0836 22.7151C64.2352 22.6393 64.3888 22.5509 64.5382 22.4667C64.574 22.4457 64.5803 22.4646 64.5551 22.412L64.553 22.4099ZM64.553 22.4099L63.991 22.7003C64.0016 22.7656 64.0395 22.7361 64.0836 22.7151C64.2352 22.6393 64.3888 22.5509 64.5382 22.4667C64.574 22.4457 64.5803 22.4646 64.5551 22.412L64.553 22.4099ZM63.9763 22.7298L61.8443 23.8705C61.857 23.9105 61.8506 23.921 61.8927 23.9021C62.0295 23.8389 62.1579 23.7484 62.2842 23.6811C62.8419 23.3822 63.4017 23.0855 63.9595 22.7866C63.9868 22.7719 64.0226 22.7445 63.9763 22.7319V22.7298ZM63.9763 22.7298L61.8443 23.8705C61.857 23.9105 61.8506 23.921 61.8927 23.9021C62.0295 23.8389 62.1579 23.7484 62.2842 23.6811C62.8419 23.3822 63.4017 23.0855 63.9595 22.7866C63.9868 22.7719 64.0226 22.7445 63.9763 22.7319V22.7298ZM64.553 22.4099L63.991 22.7003C64.0016 22.7656 64.0395 22.7361 64.0836 22.7151C64.2352 22.6393 64.3888 22.5509 64.5382 22.4667C64.574 22.4457 64.5803 22.4646 64.5551 22.412L64.553 22.4099ZM64.553 22.4099L63.991 22.7003C64.0016 22.7656 64.0395 22.7361 64.0836 22.7151C64.2352 22.6393 64.3888 22.5509 64.5382 22.4667C64.574 22.4457 64.5803 22.4646 64.5551 22.412L64.553 22.4099ZM63.9763 22.7298L61.8443 23.8705C61.857 23.9105 61.8506 23.921 61.8927 23.9021C62.0295 23.8389 62.1579 23.7484 62.2842 23.6811C62.8419 23.3822 63.4017 23.0855 63.9595 22.7866C63.9868 22.7719 64.0226 22.7445 63.9763 22.7319V22.7298ZM63.9763 22.7298L61.8443 23.8705C61.857 23.9105 61.8506 23.921 61.8927 23.9021C62.0295 23.8389 62.1579 23.7484 62.2842 23.6811C62.8419 23.3822 63.4017 23.0855 63.9595 22.7866C63.9868 22.7719 64.0226 22.7445 63.9763 22.7319V22.7298ZM64.553 22.4099L63.991 22.7003C64.0016 22.7656 64.0395 22.7361 64.0836 22.7151C64.2352 22.6393 64.3888 22.5509 64.5382 22.4667C64.574 22.4457 64.5803 22.4646 64.5551 22.412L64.553 22.4099ZM64.553 22.4099L63.991 22.7003C64.0016 22.7656 64.0395 22.7361 64.0836 22.7151C64.2352 22.6393 64.3888 22.5509 64.5382 22.4667C64.574 22.4457 64.5803 22.4646 64.5551 22.412L64.553 22.4099ZM63.9763 22.7298L61.8443 23.8705C61.857 23.9105 61.8506 23.921 61.8927 23.9021C62.0295 23.8389 62.1579 23.7484 62.2842 23.6811C62.8419 23.3822 63.4017 23.0855 63.9595 22.7866C63.9868 22.7719 64.0226 22.7445 63.9763 22.7319V22.7298ZM63.9763 22.7298L61.8443 23.8705C61.857 23.9105 61.8506 23.921 61.8927 23.9021C62.0295 23.8389 62.1579 23.7484 62.2842 23.6811C62.8419 23.3822 63.4017 23.0855 63.9595 22.7866C63.9868 22.7719 64.0226 22.7445 63.9763 22.7319V22.7298ZM64.553 22.4099L63.991 22.7003C64.0016 22.7656 64.0395 22.7361 64.0836 22.7151C64.2352 22.6393 64.3888 22.5509 64.5382 22.4667C64.574 22.4457 64.5803 22.4646 64.5551 22.412L64.553 22.4099ZM64.553 22.4099L63.991 22.7003C64.0016 22.7656 64.0395 22.7361 64.0836 22.7151C64.2352 22.6393 64.3888 22.5509 64.5382 22.4667C64.574 22.4457 64.5803 22.4646 64.5551 22.412L64.553 22.4099ZM63.9763 22.7298L61.8443 23.8705C61.857 23.9105 61.8506 23.921 61.8927 23.9021C62.0295 23.8389 62.1579 23.7484 62.2842 23.6811C62.8419 23.3822 63.4017 23.0855 63.9595 22.7866C63.9868 22.7719 64.0226 22.7445 63.9763 22.7319V22.7298ZM73.7355 19.4382C73.6934 19.3498 73.2977 19.194 73.1819 19.1456C72.9546 19.0509 72.7126 18.9857 72.4895 18.8783C72.4159 18.8804 72.4558 18.9352 72.4222 18.9878C72.2769 19.2214 71.4056 19.5855 71.132 19.5729C70.9573 19.5644 70.829 19.3582 70.7616 19.2109C70.77 19.194 71.0815 19.1351 71.1362 19.1162C71.2794 19.0699 71.7845 18.8615 71.8202 18.7184C71.8266 18.6931 71.8308 18.67 71.8181 18.6447C71.7866 18.59 71.1447 18.59 71.0436 18.5963C70.1681 18.6405 69.2673 18.8257 68.3981 18.9457H68.2782C68.3182 18.952 68.4318 18.9983 68.4234 19.032L68.2697 18.9815L68.2634 18.9436L67.8215 15.9045C67.8025 15.7824 67.6489 15.9487 67.6405 15.8161C67.8762 15.753 67.5458 15.5572 67.4574 15.4794C67.4321 15.4583 67.4174 15.412 67.4111 15.4057C67.409 15.4057 67.3795 15.4225 67.3605 15.4057C67.228 15.2878 67.0848 15.1574 66.967 15.0248C67.0154 14.9974 67.0806 15.0795 67.1185 15.109C67.2237 15.191 67.3227 15.2857 67.4237 15.3741C67.5394 15.4752 67.8635 15.7256 67.9056 15.8498C68.0698 16.7926 68.1435 17.7776 68.3329 18.7121C68.3518 18.8047 68.3476 18.9562 68.4676 18.8889C68.2613 17.8597 68.1666 16.8074 67.954 15.7803C67.6215 15.4709 67.2722 15.1595 66.9144 14.8774C66.7628 14.7575 66.5461 14.507 66.3566 14.6712L67.1332 15.8035L67.1543 15.9845C66.7144 17.0957 66.243 18.1922 65.78 19.2929C66.0199 19.2487 66.5061 19.1709 66.7334 19.1772C66.7691 19.1772 66.8028 19.1162 66.8154 19.1961C66.8007 19.2024 66.786 19.2067 66.7713 19.213C66.4892 19.3329 65.9673 19.3224 65.6579 19.3645C65.258 19.4192 64.8392 19.4782 64.4435 19.5581C64.0373 19.6402 63.6248 19.7349 63.2397 19.8886C63.2165 19.8654 63.3218 19.8296 63.2586 19.8065C63.2418 19.8002 63.0271 19.9496 62.985 19.9622C62.9703 19.9664 62.9598 19.9285 62.924 19.9306C62.7935 19.9349 62.6462 19.9917 62.5157 20.0148C62.4883 19.9833 62.6294 19.9601 62.5557 19.9243C62.5157 19.9033 61.7707 19.9664 61.6423 19.9664C61.4718 19.9664 61.0972 19.9833 60.9541 19.9327C60.7794 19.8717 59.8954 19.3014 59.7271 19.1667C59.6829 19.1309 59.4261 18.8741 59.403 18.8383C59.3567 18.7668 59.4303 17.8681 59.403 17.7103C59.3903 17.6345 59.3882 17.5777 59.3019 17.5672C59.1883 17.5503 58.7421 17.6366 58.6621 17.7187C58.639 17.7418 58.6516 17.7839 58.6285 17.8155C58.418 18.1396 58.1549 18.6153 57.9213 18.8973C58.1255 18.9162 58.338 18.7731 58.5359 18.7121C58.7084 18.6595 58.8915 18.6531 59.0662 18.611L59.3251 17.6135L59.3546 18.7984C58.9042 18.6153 58.3654 18.8531 57.915 18.973C57.8961 18.9773 57.8771 18.9646 57.8729 18.9667C57.6772 19.0193 57.4857 19.0846 57.2899 19.1393C57.3636 19.3182 57.5825 19.2614 57.7298 19.2445L57.7382 19.2656L55.482 20.7388L55.4736 20.7788C55.6462 20.7472 55.8798 20.7725 56.044 20.7325C56.225 20.6883 56.4502 20.5515 56.6249 20.4631C56.6649 20.4421 56.6901 20.4147 56.7027 20.4084C56.909 20.3032 57.13 20.2106 57.3299 20.0927C57.3552 20.078 57.3573 20.0906 57.3657 20.0548C57.4604 20.0211 57.553 19.9748 57.6393 19.9243C57.6666 19.9096 57.694 19.918 57.6961 19.878L58.2875 19.6065L59.4682 20.9219L59.3693 20.9872C59.3882 21.1618 59.5734 21.0671 59.5987 21.0756C59.6092 21.0798 59.6092 21.1219 59.6387 21.1324C59.6871 21.1513 59.8597 21.1387 59.9186 21.124C59.9102 21.3071 59.9396 21.5302 60.127 21.6186C60.4216 21.7554 61.4823 21.7259 61.8275 21.6796C62.1474 21.6375 62.5346 21.5701 62.7683 21.3323C62.6567 21.3428 62.6062 21.366 62.4968 21.3113C62.4568 21.2902 62.2884 21.1618 62.4168 21.1661C62.4315 21.1661 62.5241 21.3239 62.6441 21.3029C62.722 21.2881 62.8272 21.1808 62.8103 21.3155C63.1197 21.2944 63.4207 21.3302 63.7238 21.3891C63.8395 21.4102 64.13 21.5133 64.2078 21.5154C64.2625 21.5154 64.3236 21.4628 64.3509 21.4986L58.8663 25.0912C58.6243 24.9838 58.3654 24.9039 58.1128 24.8197C58.0876 24.8113 58.0539 24.8323 58.0455 24.8323C58.0644 24.8386 58.1928 24.9081 58.1823 24.9291C58.0813 24.9523 58.0055 24.847 57.9171 24.8197C57.9508 24.8281 58.0181 24.8239 58.0455 24.8323C57.9887 24.8155 57.9781 24.786 57.8434 24.7608C57.8476 24.7608 57.8792 24.8092 57.8792 24.8218L57.8034 24.7881C57.7929 24.7713 57.8392 24.7608 57.8434 24.7608C57.8392 24.7608 57.8056 24.7418 57.7845 24.7334C57.7824 24.7797 57.6835 24.7502 57.6624 24.7439C57.6077 24.725 57.5383 24.6976 57.5214 24.6345C57.4351 24.6134 57.332 24.5608 57.2436 24.5903C57.2099 24.6008 57.2036 24.6008 57.2226 24.6366L58.3885 25.3374C58.7484 25.3732 59.1104 25.3206 59.4619 25.2364C61.3308 24.2935 63.1745 23.3023 65.0434 22.3573C66.3987 21.6712 67.7162 21.0356 69.1747 20.5768C70.5217 20.2821 72.298 20.2968 73.5334 19.6549C73.6071 19.6171 73.7712 19.516 73.727 19.4255L73.7355 19.4382ZM59.9481 20.802L60.0575 20.7346L60.6173 20.5957L60.2153 20.7493L59.9481 20.802ZM60.6321 21.3513L60.4511 21.3344L62.179 21.0714C62.2063 21.0692 62.2274 21.1492 62.2274 21.1534C62.1937 21.2334 60.8215 21.3407 60.6321 21.3513ZM62.4883 20.5557C62.3263 20.6441 62.3473 20.8525 62.3515 21.0019C62.3515 21.0419 62.3852 21.0566 62.32 21.0692C62.2842 20.9914 62.28 20.9093 62.28 20.8251C62.28 20.7704 62.2863 20.6294 62.3536 20.6315C62.3431 20.5894 62.2989 20.6315 62.2821 20.6441C62.2379 20.6883 62.2358 20.7514 62.1874 20.783C62.2358 20.7072 62.2126 20.6104 62.3073 20.5747C62.2842 20.541 62.2379 20.5473 62.2042 20.5452C61.8527 20.5263 61.3897 20.621 61.0488 20.7094C60.6826 20.8041 60.2995 20.9219 59.9649 21.0945C59.9586 21.0629 59.9859 21.0356 60.0091 21.0145C60.3122 20.7536 61.577 20.4905 62.0085 20.4547C62.0716 20.4484 62.6988 20.4315 62.6988 20.4842C62.6988 20.5536 62.5578 20.5157 62.4904 20.5515L62.4883 20.5557ZM62.8377 21.1198C62.8482 20.9451 62.8567 20.783 62.7725 20.621C62.7851 20.5747 62.8125 20.6062 62.8293 20.6357C62.8987 20.7662 62.9724 21.0082 62.8398 21.1177L62.8377 21.1198ZM62.8903 20.4757C63.0124 20.4315 63.1639 20.4105 63.2923 20.4042C63.3176 20.4042 63.3597 20.3852 63.366 20.4189C63.2102 20.5599 63.0776 20.5473 62.8903 20.4778V20.4757ZM64.172 20.5368C63.9721 20.4273 64.1026 20.1664 64.3152 20.24C64.5361 20.3158 64.4141 20.6673 64.172 20.5368ZM67.9814 18.9794C68.0277 19.0677 67.9919 19.0572 67.9099 19.0551C67.8972 19.0551 67.8657 19.0299 67.8362 19.0593C67.832 19.0551 67.8004 19.0614 67.7983 19.0236L67.9814 18.9794ZM67.7036 19.0362C67.7183 19.0025 67.7773 19.0299 67.7625 19.0635C67.7478 19.0972 67.6889 19.0699 67.7036 19.0362ZM67.5773 19.0341C67.5878 19.0025 67.6826 19.0446 67.6678 19.0741C67.6447 19.1204 67.5605 19.0846 67.5773 19.0341ZM67.491 19.0677C67.5058 19.0341 67.5647 19.0614 67.55 19.0951C67.5352 19.1288 67.4763 19.1014 67.491 19.0677ZM67.6615 20.118C67.5752 20.2969 67.2153 20.1495 67.3269 19.9412C67.4279 19.7539 67.7562 19.9201 67.6615 20.118ZM67.3942 19.0783C67.409 19.0446 67.4679 19.072 67.4531 19.1056C67.4384 19.1393 67.3795 19.1119 67.3942 19.0783ZM67.2785 19.0972C67.3037 19.0509 67.3879 19.0867 67.369 19.1372C67.3584 19.1688 67.2637 19.1267 67.2785 19.0972ZM67.2427 19.1372C67.209 19.154 67.1648 19.1604 67.1332 19.1793C67.1038 19.1498 67.0638 19.1877 67.0385 19.1898C67.0049 19.194 66.9501 19.2024 66.948 19.1498C66.9691 19.1204 67.2869 19.0551 67.2427 19.1372ZM66.8533 19.1604C66.8681 19.1267 66.927 19.154 66.9123 19.1877C66.8975 19.2214 66.8386 19.194 66.8533 19.1604ZM66.8491 19.9159C67.0301 19.9012 67.1332 20.2337 66.8428 20.2505C66.645 20.2611 66.5608 19.937 66.8491 19.9159ZM66.4429 20.259C66.3777 20.4042 66.1272 20.4105 66.0494 20.2548C65.8305 19.8296 66.5987 19.9117 66.4429 20.259ZM65.599 20.0401C65.6284 20.0443 65.6284 20.0759 65.6305 20.078C65.6537 20.0864 65.6979 20.0548 65.7358 20.1053C65.9925 20.44 65.3969 20.5999 65.3443 20.2295C65.3254 20.1032 65.4958 20.0211 65.599 20.0401ZM64.7445 20.2211C64.7613 20.1853 64.8308 20.1516 64.8687 20.1432C65.0728 20.0927 65.2222 20.4189 64.9465 20.4568C64.8182 20.4736 64.6982 20.3263 64.7445 20.2211ZM67.9709 20.8756C67.6868 20.9766 67.4026 21.0945 67.1311 21.2229C65.1759 22.1426 63.2649 23.2728 61.3266 24.2409C61.2824 24.262 61.2445 24.2914 61.234 24.2262L61.7601 23.9736C61.7538 23.8979 61.6654 23.9568 61.6254 23.9757C61.2866 24.1294 60.9709 24.3546 60.6552 24.4977C60.2553 24.6787 59.8449 25.0133 59.443 25.1838C59.3609 25.2175 59.2998 25.228 59.2114 25.2196C59.1083 25.2111 59.0431 25.1375 58.9526 25.1712L59.0199 25.2196L58.9084 25.249L58.2244 24.9628L58.2454 24.9186L58.8915 25.1712C58.9589 25.1712 58.8642 25.0807 58.9315 25.0807C58.9652 25.0807 58.9989 25.1312 59.0241 25.1375C59.4408 25.2448 59.8092 24.9081 60.1669 24.7123C61.5013 23.9863 62.8082 23.216 64.0963 22.4078C64.3446 22.2836 64.6203 22.292 64.8855 22.2563C65.6411 21.7869 66.4998 21.4312 67.2532 20.9661C67.2764 20.9535 67.3374 20.9282 67.3206 20.8988C67.089 20.9345 66.8512 20.9261 66.6197 20.9535C66.525 20.964 66.4577 21.0398 66.3735 20.9619C66.9586 20.7809 67.5963 20.884 68.194 20.7641C68.1856 20.8609 68.053 20.844 67.9751 20.8714L67.9709 20.8756ZM68.2277 20.1074C68.0109 20.1664 67.8446 19.8149 68.1414 19.7707C68.3623 19.737 68.4528 20.0464 68.2277 20.1074ZM68.9369 20.0085C68.6949 20.0906 68.5307 19.7265 68.8296 19.6823C69.0316 19.6507 69.1347 19.9412 68.9369 20.0085ZM69.4631 19.9012C69.2252 19.7812 69.4315 19.4845 69.642 19.6023C69.8524 19.7223 69.6651 20.0001 69.4631 19.9012ZM63.991 22.6982C64.0016 22.7635 64.0395 22.734 64.0836 22.713C64.2352 22.6372 64.3888 22.5488 64.5382 22.4646C64.574 22.4436 64.5803 22.4625 64.5551 22.4099L63.9931 22.7003L63.991 22.6982ZM63.9763 22.7298L61.8443 23.8705C61.857 23.9105 61.8506 23.921 61.8927 23.9021C62.0295 23.8389 62.1579 23.7484 62.2842 23.6811C62.8419 23.3822 63.4017 23.0855 63.9595 22.7866C63.9868 22.7719 64.0226 22.7445 63.9763 22.7319V22.7298ZM63.9763 22.7298L61.8443 23.8705C61.857 23.9105 61.8506 23.921 61.8927 23.9021C62.0295 23.8389 62.1579 23.7484 62.2842 23.6811C62.8419 23.3822 63.4017 23.0855 63.9595 22.7866C63.9868 22.7719 64.0226 22.7445 63.9763 22.7319V22.7298ZM64.553 22.4099L63.991 22.7003C64.0016 22.7656 64.0395 22.7361 64.0836 22.7151C64.2352 22.6393 64.3888 22.5509 64.5382 22.4667C64.574 22.4457 64.5803 22.4646 64.5551 22.412L64.553 22.4099ZM64.553 22.4099L63.991 22.7003C64.0016 22.7656 64.0395 22.7361 64.0836 22.7151C64.2352 22.6393 64.3888 22.5509 64.5382 22.4667C64.574 22.4457 64.5803 22.4646 64.5551 22.412L64.553 22.4099ZM63.9763 22.7298L61.8443 23.8705C61.857 23.9105 61.8506 23.921 61.8927 23.9021C62.0295 23.8389 62.1579 23.7484 62.2842 23.6811C62.8419 23.3822 63.4017 23.0855 63.9595 22.7866C63.9868 22.7719 64.0226 22.7445 63.9763 22.7319V22.7298ZM63.9763 22.7298L61.8443 23.8705C61.857 23.9105 61.8506 23.921 61.8927 23.9021C62.0295 23.8389 62.1579 23.7484 62.2842 23.6811C62.8419 23.3822 63.4017 23.0855 63.9595 22.7866C63.9868 22.7719 64.0226 22.7445 63.9763 22.7319V22.7298ZM64.553 22.4099L63.991 22.7003C64.0016 22.7656 64.0395 22.7361 64.0836 22.7151C64.2352 22.6393 64.3888 22.5509 64.5382 22.4667C64.574 22.4457 64.5803 22.4646 64.5551 22.412L64.553 22.4099ZM64.553 22.4099L63.991 22.7003C64.0016 22.7656 64.0395 22.7361 64.0836 22.7151C64.2352 22.6393 64.3888 22.5509 64.5382 22.4667C64.574 22.4457 64.5803 22.4646 64.5551 22.412L64.553 22.4099ZM63.9763 22.7298L61.8443 23.8705C61.857 23.9105 61.8506 23.921 61.8927 23.9021C62.0295 23.8389 62.1579 23.7484 62.2842 23.6811C62.8419 23.3822 63.4017 23.0855 63.9595 22.7866C63.9868 22.7719 64.0226 22.7445 63.9763 22.7319V22.7298ZM63.9763 22.7298L61.8443 23.8705C61.857 23.9105 61.8506 23.921 61.8927 23.9021C62.0295 23.8389 62.1579 23.7484 62.2842 23.6811C62.8419 23.3822 63.4017 23.0855 63.9595 22.7866C63.9868 22.7719 64.0226 22.7445 63.9763 22.7319V22.7298ZM64.553 22.4099L63.991 22.7003C64.0016 22.7656 64.0395 22.7361 64.0836 22.7151C64.2352 22.6393 64.3888 22.5509 64.5382 22.4667C64.574 22.4457 64.5803 22.4646 64.5551 22.412L64.553 22.4099ZM64.553 22.4099L63.991 22.7003C64.0016 22.7656 64.0395 22.7361 64.0836 22.7151C64.2352 22.6393 64.3888 22.5509 64.5382 22.4667C64.574 22.4457 64.5803 22.4646 64.5551 22.412L64.553 22.4099ZM63.9763 22.7298L61.8443 23.8705C61.857 23.9105 61.8506 23.921 61.8927 23.9021C62.0295 23.8389 62.1579 23.7484 62.2842 23.6811C62.8419 23.3822 63.4017 23.0855 63.9595 22.7866C63.9868 22.7719 64.0226 22.7445 63.9763 22.7319V22.7298ZM63.9763 22.7298L61.8443 23.8705C61.857 23.9105 61.8506 23.921 61.8927 23.9021C62.0295 23.8389 62.1579 23.7484 62.2842 23.6811C62.8419 23.3822 63.4017 23.0855 63.9595 22.7866C63.9868 22.7719 64.0226 22.7445 63.9763 22.7319V22.7298ZM64.553 22.4099L63.991 22.7003C64.0016 22.7656 64.0395 22.7361 64.0836 22.7151C64.2352 22.6393 64.3888 22.5509 64.5382 22.4667C64.574 22.4457 64.5803 22.4646 64.5551 22.412L64.553 22.4099ZM64.553 22.4099L63.991 22.7003C64.0016 22.7656 64.0395 22.7361 64.0836 22.7151C64.2352 22.6393 64.3888 22.5509 64.5382 22.4667C64.574 22.4457 64.5803 22.4646 64.5551 22.412L64.553 22.4099ZM63.9763 22.7298L61.8443 23.8705C61.857 23.9105 61.8506 23.921 61.8927 23.9021C62.0295 23.8389 62.1579 23.7484 62.2842 23.6811C62.8419 23.3822 63.4017 23.0855 63.9595 22.7866C63.9868 22.7719 64.0226 22.7445 63.9763 22.7319V22.7298ZM63.9763 22.7298L61.8443 23.8705C61.857 23.9105 61.8506 23.921 61.8927 23.9021C62.0295 23.8389 62.1579 23.7484 62.2842 23.6811C62.8419 23.3822 63.4017 23.0855 63.9595 22.7866C63.9868 22.7719 64.0226 22.7445 63.9763 22.7319V22.7298ZM64.553 22.4099L63.991 22.7003C64.0016 22.7656 64.0395 22.7361 64.0836 22.7151C64.2352 22.6393 64.3888 22.5509 64.5382 22.4667C64.574 22.4457 64.5803 22.4646 64.5551 22.412L64.553 22.4099ZM64.553 22.4099L63.991 22.7003C64.0016 22.7656 64.0395 22.7361 64.0836 22.7151C64.2352 22.6393 64.3888 22.5509 64.5382 22.4667C64.574 22.4457 64.5803 22.4646 64.5551 22.412L64.553 22.4099ZM63.9763 22.7298L61.8443 23.8705C61.857 23.9105 61.8506 23.921 61.8927 23.9021C62.0295 23.8389 62.1579 23.7484 62.2842 23.6811C62.8419 23.3822 63.4017 23.0855 63.9595 22.7866C63.9868 22.7719 64.0226 22.7445 63.9763 22.7319V22.7298ZM63.9763 22.7298L61.8443 23.8705C61.857 23.9105 61.8506 23.921 61.8927 23.9021C62.0295 23.8389 62.1579 23.7484 62.2842 23.6811C62.8419 23.3822 63.4017 23.0855 63.9595 22.7866C63.9868 22.7719 64.0226 22.7445 63.9763 22.7319V22.7298ZM64.553 22.4099L63.991 22.7003C64.0016 22.7656 64.0395 22.7361 64.0836 22.7151C64.2352 22.6393 64.3888 22.5509 64.5382 22.4667C64.574 22.4457 64.5803 22.4646 64.5551 22.412L64.553 22.4099ZM64.553 22.4099L63.991 22.7003C64.0016 22.7656 64.0395 22.7361 64.0836 22.7151C64.2352 22.6393 64.3888 22.5509 64.5382 22.4667C64.574 22.4457 64.5803 22.4646 64.5551 22.412L64.553 22.4099ZM63.9763 22.7298L61.8443 23.8705C61.857 23.9105 61.8506 23.921 61.8927 23.9021C62.0295 23.8389 62.1579 23.7484 62.2842 23.6811C62.8419 23.3822 63.4017 23.0855 63.9595 22.7866C63.9868 22.7719 64.0226 22.7445 63.9763 22.7319V22.7298ZM63.9763 22.7298L61.8443 23.8705C61.857 23.9105 61.8506 23.921 61.8927 23.9021C62.0295 23.8389 62.1579 23.7484 62.2842 23.6811C62.8419 23.3822 63.4017 23.0855 63.9595 22.7866C63.9868 22.7719 64.0226 22.7445 63.9763 22.7319V22.7298ZM64.553 22.4099L63.991 22.7003C64.0016 22.7656 64.0395 22.7361 64.0836 22.7151C64.2352 22.6393 64.3888 22.5509 64.5382 22.4667C64.574 22.4457 64.5803 22.4646 64.5551 22.412L64.553 22.4099ZM64.553 22.4099L63.991 22.7003C64.0016 22.7656 64.0395 22.7361 64.0836 22.7151C64.2352 22.6393 64.3888 22.5509 64.5382 22.4667C64.574 22.4457 64.5803 22.4646 64.5551 22.412L64.553 22.4099ZM63.9763 22.7298L61.8443 23.8705C61.857 23.9105 61.8506 23.921 61.8927 23.9021C62.0295 23.8389 62.1579 23.7484 62.2842 23.6811C62.8419 23.3822 63.4017 23.0855 63.9595 22.7866C63.9868 22.7719 64.0226 22.7445 63.9763 22.7319V22.7298ZM63.9763 22.7298L61.8443 23.8705C61.857 23.9105 61.8506 23.921 61.8927 23.9021C62.0295 23.8389 62.1579 23.7484 62.2842 23.6811C62.8419 23.3822 63.4017 23.0855 63.9595 22.7866C63.9868 22.7719 64.0226 22.7445 63.9763 22.7319V22.7298ZM64.553 22.4099L63.991 22.7003C64.0016 22.7656 64.0395 22.7361 64.0836 22.7151C64.2352 22.6393 64.3888 22.5509 64.5382 22.4667C64.574 22.4457 64.5803 22.4646 64.5551 22.412L64.553 22.4099ZM64.553 22.4099L63.991 22.7003C64.0016 22.7656 64.0395 22.7361 64.0836 22.7151C64.2352 22.6393 64.3888 22.5509 64.5382 22.4667C64.574 22.4457 64.5803 22.4646 64.5551 22.412L64.553 22.4099ZM63.9763 22.7298L61.8443 23.8705C61.857 23.9105 61.8506 23.921 61.8927 23.9021C62.0295 23.8389 62.1579 23.7484 62.2842 23.6811C62.8419 23.3822 63.4017 23.0855 63.9595 22.7866C63.9868 22.7719 64.0226 22.7445 63.9763 22.7319V22.7298Z" fill="white"/>
<path d="M59.203 19.9918L59.2112 20.0122C59.1948 20.0122 59.1928 20.0041 59.203 19.9918Z" fill="white"/>
<path d="M59.2406 20.0255L59.2488 20.0459C59.2324 20.0459 59.2304 20.0377 59.2406 20.0255Z" fill="white"/>
<path d="M59.2787 20.0612L59.2869 20.0817C59.2705 20.0817 59.2685 20.0735 59.2787 20.0612Z" fill="white"/>
<path d="M59.3163 20.097L59.3245 20.1174C59.3081 20.1174 59.3061 20.1093 59.3163 20.097Z" fill="white"/>
<path d="M67.5353 15.8584C67.63 15.8857 67.39 15.9657 67.3669 15.972C67.3395 15.9804 67.2932 16.0183 67.2827 15.9783L67.5353 15.8562V15.8584Z" fill="white"/>
<path d="M66.4174 20.6001L66.4255 20.6205C66.4092 20.6205 66.4072 20.6123 66.4174 20.6001Z" fill="white"/>
<path d="M66.2936 20.5959C66.3252 20.5938 66.361 20.5728 66.3862 20.6107C66.26 20.6401 66.1295 20.6675 66.0011 20.6843C65.9611 20.6885 65.9464 20.7306 65.9316 20.6612C66.0453 20.6338 66.1779 20.6044 66.2936 20.5959Z" fill="white"/>
<path d="M66.0451 20.9894C66.0851 20.9852 66.0998 20.9431 66.1146 21.0125C66.0283 21.0378 65.9357 21.0546 65.8473 21.0651C65.8073 21.0693 65.7926 21.1114 65.7778 21.042C65.8641 21.0167 65.9567 20.9999 66.0451 20.9894Z" fill="white"/>
<path d="M65.7422 21.082L65.4434 21.1473C65.5023 21.0968 65.5949 21.0778 65.6707 21.061C65.7127 21.0526 65.7254 21.0147 65.7422 21.082Z" fill="white"/>
<path d="M65.3927 20.7915C65.3527 20.7958 65.338 20.8379 65.3232 20.7684C65.3716 20.7495 65.4243 20.741 65.4748 20.7347C65.5148 20.7305 65.5295 20.6884 65.5442 20.7579C65.4958 20.7768 65.4432 20.7852 65.3927 20.7915Z" fill="white"/>
<path d="M65.3274 21.1389C65.3611 21.1305 65.3948 21.1157 65.42 21.1536L65.0117 21.261C65.0938 21.1957 65.2222 21.1641 65.3274 21.1389Z" fill="white"/>
<path d="M65.0306 20.8548C64.9443 20.8758 64.8496 20.9032 64.7612 20.9116C64.7191 20.9158 64.7065 20.9495 64.6938 20.8843C64.7822 20.8674 64.8727 20.8464 64.9611 20.8337C65.0011 20.8274 65.0159 20.7853 65.0306 20.8548Z" fill="white"/>
<path d="M64.3634 21.4587L64.9296 21.242C64.9233 21.3114 64.797 21.3451 64.7381 21.3661C64.6812 21.3872 64.6265 21.3851 64.576 21.4019C64.5402 21.4145 64.5129 21.444 64.4771 21.4566C64.456 21.4629 64.3697 21.4924 64.3613 21.4608L64.3634 21.4587Z" fill="white"/>
<path d="M67.7287 21.0945C67.7014 21.1029 67.6529 21.1408 67.6445 21.1008L67.8971 20.9787C67.9918 21.0061 67.7519 21.0861 67.7287 21.0924V21.0945Z" fill="white"/>
<path d="M63.9618 22.7846C63.4041 23.0835 62.8443 23.3781 62.2865 23.6791C62.1603 23.7464 62.0319 23.839 61.8951 23.9001C61.853 23.919 61.8593 23.9085 61.8467 23.8685L63.9787 22.7278C64.0271 22.7425 63.9913 22.7678 63.9618 22.7825V22.7846Z" fill="white"/>
<path d="M64.536 22.4647C64.3865 22.5488 64.235 22.6372 64.0814 22.713C64.0372 22.734 63.9993 22.7635 63.9888 22.6983L64.5507 22.4078C64.576 22.4604 64.5696 22.4436 64.5339 22.4626L64.536 22.4647Z" fill="white"/>
<path d="M72.4433 19.5478C72.4054 19.5478 72.3886 19.5836 72.376 19.5183C72.4412 19.5078 72.5086 19.4994 72.5738 19.4994C72.5991 19.4994 72.6412 19.4826 72.6475 19.5141C72.5822 19.5457 72.5128 19.552 72.4412 19.5499L72.4433 19.5478Z" fill="white"/>
<path d="M64.9296 21.242C64.9233 21.3114 64.797 21.3451 64.7381 21.3661C64.6812 21.3872 64.6265 21.3851 64.576 21.4019C64.5402 21.4145 64.5129 21.444 64.4771 21.4566C64.456 21.4629 64.3697 21.4924 64.3613 21.4608L64.9275 21.2441L64.9296 21.242Z" fill="white"/>
<path d="M66.3838 20.6107C66.2575 20.6401 66.127 20.6675 65.9986 20.6843C65.9587 20.6885 65.9439 20.7306 65.9292 20.6612C66.0428 20.6338 66.1754 20.6044 66.2912 20.5959C66.3228 20.5938 66.3585 20.5728 66.3838 20.6107Z" fill="white"/>
<path d="M65.42 21.1558L65.0117 21.2631C65.0938 21.1978 65.2222 21.1663 65.3274 21.141C65.3611 21.1326 65.3948 21.1179 65.42 21.1558Z" fill="white"/>
<path d="M66.1146 21.0147C66.0283 21.0399 65.9357 21.0568 65.8473 21.0673C65.8073 21.0715 65.7926 21.1136 65.7778 21.0441C65.8641 21.0189 65.9567 21.002 66.0451 20.9915C66.0851 20.9873 66.0998 20.9452 66.1146 21.0147Z" fill="white"/>
<path d="M65.0306 20.8548C64.9443 20.8758 64.8496 20.9032 64.7612 20.9116C64.7191 20.9158 64.7065 20.9495 64.6938 20.8843C64.7822 20.8674 64.8727 20.8464 64.9611 20.8337C65.0011 20.8274 65.0159 20.7853 65.0306 20.8548Z" fill="white"/>
<path d="M67.7287 21.0945C67.7014 21.1029 67.6529 21.1408 67.6445 21.1008L67.8971 20.9787C67.9918 21.0061 67.7519 21.0861 67.7287 21.0924V21.0945Z" fill="white"/>
<path d="M65.7422 21.082L65.4434 21.1473C65.5023 21.0968 65.5949 21.0778 65.6707 21.061C65.7127 21.0526 65.7254 21.0147 65.7422 21.082Z" fill="white"/>
<path d="M65.5423 20.7579C65.4939 20.7768 65.4413 20.7852 65.3907 20.7915C65.3508 20.7958 65.336 20.8379 65.3213 20.7684C65.3697 20.7495 65.4223 20.741 65.4728 20.7347C65.5128 20.7305 65.5275 20.6884 65.5423 20.7579Z" fill="white"/>
<path d="M58.1885 24.9419C58.0875 24.965 58.0117 24.8598 57.9233 24.8324C57.957 24.8408 58.0244 24.8366 58.0517 24.845C58.0707 24.8514 58.199 24.9208 58.1885 24.9419Z" fill="white"/>
<path d="M57.8854 24.8324L57.8097 24.7988C57.7991 24.7819 57.8454 24.7714 57.8496 24.7714C57.8496 24.7714 57.8854 24.8198 57.8854 24.8324Z" fill="white"/>
<path d="M66.4255 20.6205C66.4092 20.6205 66.4072 20.6123 66.4174 20.6001L66.4255 20.6205Z" fill="white"/>
<path d="M59.3245 20.1174C59.3081 20.1174 59.3061 20.1093 59.3163 20.097L59.3245 20.1174Z" fill="white"/>
<path d="M59.2869 20.0838C59.2705 20.0838 59.2685 20.0756 59.2787 20.0634L59.2869 20.0838Z" fill="white"/>
<path d="M59.2488 20.048C59.2324 20.048 59.2304 20.0398 59.2406 20.0276L59.2488 20.048Z" fill="white"/>
<path d="M59.2087 20.0122C59.1924 20.0122 59.1904 20.0041 59.2006 19.9918L59.2087 20.0122Z" fill="white"/>
<path d="M63.9618 22.7846C63.4041 23.0835 62.8443 23.3781 62.2865 23.6791C62.1603 23.7464 62.0319 23.839 61.8951 23.9001C61.853 23.919 61.8593 23.9085 61.8467 23.8685L63.9787 22.7278C64.0271 22.7425 63.9913 22.7678 63.9618 22.7825V22.7846Z" fill="white"/>
<path d="M64.536 22.4647C64.3865 22.5488 64.235 22.6372 64.0814 22.713C64.0372 22.734 63.9993 22.7635 63.9888 22.6983L64.5507 22.4078C64.576 22.4604 64.5696 22.4436 64.5339 22.4626L64.536 22.4647Z" fill="white"/>
<path d="M86.2117 17.2116C86.2117 17.2116 86.2075 17.1969 86.2075 17.1885C86.1738 17.0306 86.1401 16.8707 86.1044 16.7149C86.1022 16.7065 86.1022 16.6981 86.098 16.6897C83.8882 7.13888 75.314 0 65.1023 0C53.2217 0 43.5552 9.66654 43.5552 21.5492C43.5552 28.7323 47.0888 35.1051 52.5103 39.0239C56.0545 41.5853 60.4027 43.0964 65.1023 43.0964C74.4174 43.0964 82.3708 37.155 85.3719 28.8649C85.7003 27.9578 85.9697 27.0255 86.1717 26.07C84.9826 26.4551 83.8124 26.8087 82.6654 27.1244C82.2592 28.3998 81.7183 29.6142 81.0617 30.7528C79.2264 33.9244 76.4736 36.5005 73.1672 38.1168C70.728 39.3081 67.992 39.9773 65.1023 39.9773C55.4021 39.9773 47.4298 32.4428 46.7268 22.9172C46.6953 22.4669 46.6784 22.0123 46.6784 21.5513C46.6784 20.177 46.83 18.8364 47.1162 17.5484C47.1393 17.4431 47.1625 17.3358 47.1878 17.2306C47.2088 17.138 47.232 17.0453 47.2572 16.9506C47.3309 16.6665 47.4108 16.3866 47.4992 16.1088C47.5182 16.0414 47.5392 15.9741 47.5624 15.9046C47.6718 15.5637 47.7939 15.2248 47.9244 14.8902C47.9917 14.7155 48.0633 14.5387 48.139 14.3662C48.1412 14.3598 48.1454 14.3535 48.1475 14.3472C48.1475 14.3472 48.1475 14.3409 48.1517 14.3388C48.2211 14.1704 48.2969 14.0021 48.3769 13.8358C51.2981 7.51772 57.6982 3.12537 65.1044 3.12537C75.2634 3.12537 83.5283 11.3902 83.5283 21.5492C83.5283 22.3511 83.4778 23.1424 83.3768 23.9191C84.1913 23.9148 86.4179 23.3613 86.6137 22.7173C86.6179 22.7026 86.6221 22.6899 86.6242 22.6752C86.6431 22.3027 86.6537 21.926 86.6537 21.5492C86.6537 20.0634 86.5042 18.6133 86.2159 17.2116H86.2117Z" fill="white"/>
<path d="M94.2155 23.3909C93.9756 23.6477 93.7609 23.9486 93.4915 24.138C90.8355 25.9964 88.0953 27.5538 85.3719 28.8629C83.9239 29.5617 82.4822 30.1888 81.0595 30.7508C79.2095 31.4874 77.3933 32.1209 75.6464 32.6639C74.9456 33.1837 74.2511 33.6509 73.5671 34.0698C70.9279 35.6777 68.4023 36.5469 66.0514 36.8226H66.043C65.6642 36.85 65.2854 36.8647 64.9002 36.8647C60.1711 36.8647 55.9535 34.6443 53.228 31.1906C53.2259 31.1864 53.2217 31.1822 53.2174 31.1759C52.1399 29.7532 51.3001 28.1558 50.7382 26.4847C50.7298 26.4573 50.7171 26.4279 50.7087 26.3963C49.5154 22.7827 49.6291 18.8449 51.4517 15.6312C51.4517 15.629 51.4538 15.629 51.4538 15.6269L51.4832 15.6396L53.4468 16.5214L53.4953 16.5446C53.4721 16.5993 53.449 16.6519 53.4279 16.7045C49.0924 27.0971 59.3251 31.641 75.6717 28.7303C76.5661 28.5704 77.4795 28.3894 78.4098 28.1831C79.7925 27.8801 81.211 27.5265 82.6611 27.1224C83.8082 26.8046 84.9783 26.451 86.1674 26.0659C88.5036 25.3124 90.9134 24.4327 93.3758 23.4225C93.641 23.3172 93.8767 23.2941 94.1208 23.2373C94.2113 23.2162 94.2702 23.3215 94.2092 23.3867L94.2155 23.3909Z" fill="white"/>
<path d="M78.4561 23.6369L78.2856 24.4577L78.2435 23.6222C78.0688 20.3453 77.3869 18.409 76.4335 16.7064C76.0716 15.9172 75.6275 15.1721 75.1161 14.4797C72.8031 11.3438 69.2463 9.41808 65.056 9.41808C60.0133 9.41808 56.0187 12.7371 53.9688 17.001L51.4517 15.6309C53.8404 10.6177 58.9778 7.15351 64.8897 7.15351C70.8016 7.15351 75.5222 10.3631 78.0204 15.0648C78.0204 15.0669 78.0246 15.0711 78.0246 15.0732C78.3277 15.6436 78.5382 16.2623 78.6413 16.9C78.9991 19.093 78.9338 21.2903 78.454 23.6369H78.4561Z" fill="white"/>
<path d="M94.1777 39.9605V7.1094H109.712C113.309 7.1094 116.485 7.78288 119.24 9.12773C121.992 10.4726 124.143 12.3667 125.692 14.806C127.241 17.2474 128.016 20.156 128.016 23.536C128.016 26.916 127.241 29.7867 125.692 32.2428C124.143 34.6989 121.992 36.5994 119.24 37.9442C116.487 39.2891 113.311 39.9626 109.712 39.9626H94.1777V39.9605ZM103.47 32.5459H109.243C111.152 32.5459 112.802 32.186 114.195 31.4662C115.586 30.7464 116.674 29.7067 117.457 28.3451C118.238 26.9834 118.629 25.3817 118.629 23.5339C118.629 21.686 118.238 20.0065 117.457 18.6764C116.674 17.3463 115.586 16.3234 114.195 15.6016C112.802 14.8818 111.152 14.5219 109.243 14.5219H103.47V32.5438V32.5459Z" fill="white"/>
<path d="M128.485 39.9606L142.988 7.1074H152.139L166.688 39.9606H157.02L145.661 11.6597H149.321L137.962 39.9606H128.481H128.485ZM136.417 33.531L138.81 26.7267H154.862L157.255 33.531H136.417Z" fill="white"/>
<path d="M180.863 40.6192C178.142 40.6192 175.536 40.2824 173.048 39.611C170.561 38.9397 168.551 38.0852 167.017 37.0539L170.068 30.155C171.539 31.0936 173.236 31.8681 175.161 32.4785C177.085 33.0888 179.002 33.394 180.911 33.394C182.225 33.394 183.264 33.2846 184.032 33.0657C184.799 32.8468 185.363 32.5332 185.722 32.127C186.082 31.7208 186.261 31.2347 186.261 30.6727C186.261 29.9529 185.916 29.3826 185.228 28.9596C184.54 28.5365 183.639 28.1787 182.53 27.8799C181.419 27.5831 180.215 27.3011 178.916 27.0359C177.618 26.7707 176.296 26.4193 174.951 25.9794C173.606 25.5416 172.385 24.9629 171.291 24.2431C170.195 23.5233 169.313 22.5846 168.639 21.4271C167.966 20.2696 167.631 18.8153 167.631 17.0621C167.631 15.1217 168.164 13.3538 169.226 11.7585C170.289 10.1632 171.901 8.87934 174.061 7.9091C176.22 6.93887 178.91 6.45481 182.134 6.45481C184.293 6.45481 186.413 6.69684 188.494 7.18301C190.576 7.66918 192.413 8.39527 194.008 9.3655L191.192 16.2182C189.627 15.3426 188.08 14.7007 186.545 14.2945C185.011 13.8883 183.525 13.6842 182.086 13.6842C180.802 13.6842 179.771 13.8252 178.988 14.1072C178.205 14.3892 177.643 14.7491 177.298 15.1869C176.953 15.6247 176.782 16.094 176.782 16.5949C176.782 17.3462 177.125 17.9334 177.815 18.3544C178.504 18.7774 179.396 19.1204 180.49 19.3877C181.585 19.6529 182.797 19.9265 184.127 20.2085C185.457 20.4905 186.779 20.842 188.092 21.265C189.406 21.6881 190.618 22.25 191.729 22.9551C192.84 23.6601 193.739 24.5819 194.427 25.7247C195.115 26.8676 195.461 28.2987 195.461 30.0182C195.461 31.9271 194.922 33.6865 193.842 35.2987C192.762 36.9108 191.144 38.201 188.985 39.1712C186.825 40.1414 184.119 40.6255 180.865 40.6255L180.863 40.6192Z" fill="white"/>
<path d="M10.2158 42.5367C8.16803 42.5367 6.37489 42.1873 4.84062 41.4865C3.30424 40.7877 2.11934 39.8154 1.2817 38.5674C0.444061 37.3214 0.0273438 35.9134 0.0273438 34.3434C0.0273438 32.7733 0.393549 31.4243 1.12806 30.1973C1.86258 28.9682 3.06432 27.9958 4.73749 27.2782C6.40856 26.5605 8.62894 26.2027 11.3923 26.2027H19.3267V30.4519H11.8511C9.7002 30.4519 8.24169 30.8013 7.4735 31.5021C6.70532 32.203 6.32227 33.0806 6.32227 34.1392C6.32227 35.2652 6.78319 36.1702 7.70501 36.8521C8.62684 37.5361 9.90645 37.877 11.5438 37.877C13.1812 37.877 14.5219 37.5193 15.7678 36.8016C17.0138 36.0839 17.9251 35.0274 18.5059 33.6278L19.5309 37.4666C18.9163 39.0704 17.824 40.3163 16.254 41.2044C14.6839 42.0926 12.6698 42.5346 10.2137 42.5346L10.2158 42.5367ZM18.8174 42.1789V36.5995L18.5102 35.4736V25.7965C18.5102 23.9192 17.9377 22.4607 16.7949 21.4189C15.6521 20.3792 13.92 19.8572 11.5986 19.8572C10.0959 19.8572 8.61211 20.0972 7.14518 20.5728C5.67616 21.0506 4.41338 21.7177 3.35686 22.5701L0.848147 17.9105C2.35085 16.7845 4.10611 15.9321 6.12023 15.3512C8.13436 14.7704 10.2327 14.4799 12.4173 14.4799C16.4097 14.4799 19.4825 15.4354 21.6334 17.3464C23.7843 19.2574 24.8577 22.1934 24.8577 26.1522V42.1768H18.8174V42.1789Z" fill="white"/>
<path d="M35.7556 11.0388C34.6591 11.0388 33.7604 10.6957 33.0575 10.0054C32.3546 9.31717 32.001 8.47322 32.001 7.47142C32.001 6.53275 32.3524 5.72037 33.0575 5.03005C33.7625 4.34184 34.6612 3.99668 35.7556 3.99668C36.85 3.99668 37.7508 4.31869 38.4538 4.9585C39.1588 5.60041 39.5103 6.42121 39.5103 7.42301C39.5103 8.42481 39.1651 9.27718 38.4769 9.98013C37.7887 10.6831 36.8816 11.0366 35.7556 11.0366V11.0388ZM32.6303 41.5705V14.6503H38.881V41.5705H32.6303Z" fill="white"/>
<path d="M0.00210507 54.8275L2.60342 49.0818H3.41581L6.02554 54.8275H5.16475L2.84124 49.5406H3.16956L0.84606 54.8275H0H0.00210507ZM1.10914 53.3921L1.33012 52.7355H4.56493L4.80275 53.3921H1.10914Z" fill="white"/>
<path d="M6.87988 54.8275V49.0818H7.70069V54.8275H6.87988Z" fill="white"/>
<path d="M14.2252 54.8949C13.7874 54.8949 13.3812 54.8213 13.0066 54.6739C12.632 54.5266 12.3079 54.3204 12.0342 54.0552C11.7606 53.79 11.5481 53.4785 11.3944 53.1228C11.2408 52.7671 11.165 52.3778 11.165 51.9569C11.165 51.5359 11.2408 51.1466 11.3944 50.7909C11.5481 50.4352 11.7606 50.1237 12.0342 49.8585C12.3079 49.5934 12.6299 49.3871 13.0024 49.2398C13.3749 49.0925 13.7832 49.0188 14.2252 49.0188C14.6671 49.0188 15.067 49.0904 15.4395 49.2356C15.8121 49.3808 16.1341 49.5849 16.4077 49.8522C16.6813 50.1174 16.8938 50.4289 17.0433 50.7888C17.1927 51.1466 17.2684 51.538 17.2684 51.959C17.2684 52.3799 17.1927 52.7777 17.0433 53.1333C16.8917 53.489 16.6813 53.8005 16.4077 54.0657C16.1341 54.3309 15.8121 54.5371 15.4395 54.6802C15.067 54.8255 14.6629 54.897 14.2252 54.897V54.8949ZM14.2167 54.1646C14.5388 54.1646 14.8355 54.1099 15.107 54.0005C15.3785 53.891 15.6121 53.7374 15.812 53.5374C16.012 53.3375 16.1677 53.1039 16.2793 52.8366C16.3908 52.5693 16.4476 52.2768 16.4476 51.959C16.4476 51.6412 16.3908 51.3507 16.2793 51.0855C16.1677 50.8204 16.012 50.5867 15.812 50.3847C15.6121 50.1827 15.3764 50.0269 15.107 49.9175C14.8355 49.808 14.5388 49.7533 14.2167 49.7533C13.8947 49.7533 13.6043 49.808 13.3349 49.9175C13.0655 50.0269 12.8277 50.1827 12.6256 50.3847C12.4236 50.5867 12.2658 50.8204 12.1542 51.0855C12.0427 51.3507 11.9858 51.6433 11.9858 51.959C11.9858 52.2747 12.0427 52.5693 12.1542 52.8366C12.2658 53.1039 12.4236 53.3396 12.6256 53.5374C12.8277 53.7374 13.0655 53.891 13.3349 54.0005C13.6064 54.1099 13.8989 54.1646 14.2167 54.1646Z" fill="white"/>
<path d="M18.5269 54.8275V49.0818H20.7683C21.2713 49.0818 21.7006 49.1618 22.0563 49.3196C22.412 49.4775 22.6856 49.709 22.8771 50.01C23.0686 50.3109 23.1633 50.6687 23.1633 51.0854C23.1633 51.5021 23.0665 51.8578 22.8771 52.1567C22.6856 52.4555 22.412 52.6849 22.0563 52.847C21.7006 53.0091 21.2713 53.089 20.7683 53.089H18.9793L19.3477 52.7039V54.8296H18.5269V54.8275ZM19.3477 52.7839L18.9793 52.3735H20.743C21.2692 52.3735 21.667 52.2619 21.9363 52.0367C22.2078 51.8115 22.3425 51.4958 22.3425 51.0854C22.3425 50.675 22.2078 50.3572 21.9363 50.1341C21.6648 49.9089 21.2671 49.7974 20.743 49.7974H18.9793L19.3477 49.387V52.786V52.7839Z" fill="white"/>
<path d="M24.3716 54.8275V49.0818H28.4272V49.7953H25.1924V54.1119H28.5408V54.8253H24.3716V54.8275ZM25.1187 52.2598V51.5632H28.0736V52.2598H25.1187Z" fill="white"/>
<path d="M29.8711 54.8275V49.0818H32.1125C32.8576 49.0818 33.4426 49.2586 33.8699 49.6122C34.2971 49.9658 34.5097 50.4561 34.5097 51.0854C34.5097 51.5021 34.4129 51.8578 34.2235 52.1567C34.0319 52.4555 33.7583 52.6828 33.4027 52.8428C33.047 53.0006 32.6176 53.0806 32.1146 53.0806H30.3257L30.694 52.7039V54.8296H29.8732L29.8711 54.8275ZM30.6919 52.7839L30.3236 52.3819H32.0873C32.6134 52.3819 33.0112 52.2682 33.2806 52.0409C33.5521 51.8136 33.6868 51.4958 33.6868 51.0854C33.6868 50.675 33.5521 50.3572 33.2806 50.1341C33.0091 49.9089 32.6113 49.7974 32.0873 49.7974H30.3236L30.6919 49.387V52.786V52.7839ZM33.712 54.8275L32.2514 52.7418H33.1291L34.6065 54.8275H33.712Z" fill="white"/>
<path d="M34.9684 54.8275L37.5697 49.0818H38.3821L40.9918 54.8275H40.1311L37.8076 49.5406H38.1359L35.8124 54.8275H34.9663H34.9684ZM36.0754 53.3921L36.2964 52.7355H39.5312L39.7691 53.3921H36.0754Z" fill="white"/>
<path d="M42.6984 54.8275V49.7953H40.7285V49.0818H45.4808V49.7953H43.5108V54.8275H42.6984Z" fill="white"/>
<path d="M46.3774 54.8275V49.0818H47.1982V54.8275H46.3774Z" fill="white"/>
<path d="M51.5147 54.8949C51.077 54.8949 50.6708 54.8213 50.2961 54.6739C49.9215 54.5266 49.5974 54.3204 49.3238 54.0552C49.0502 53.79 48.8376 53.4785 48.684 53.1228C48.5304 52.7671 48.4546 52.3778 48.4546 51.9569C48.4546 51.5359 48.5304 51.1466 48.684 50.7909C48.8376 50.4352 49.0502 50.1237 49.3238 49.8585C49.5974 49.5934 49.9194 49.3871 50.2919 49.2398C50.6644 49.0925 51.0727 49.0188 51.5147 49.0188C51.9567 49.0188 52.3566 49.0904 52.7291 49.2356C53.1016 49.3808 53.4236 49.5849 53.6972 49.8522C53.9708 50.1174 54.1834 50.4289 54.3328 50.7888C54.4822 51.1466 54.558 51.538 54.558 51.959C54.558 52.3799 54.4822 52.7777 54.3328 53.1333C54.1813 53.489 53.9708 53.8005 53.6972 54.0657C53.4236 54.3309 53.1016 54.5371 52.7291 54.6802C52.3566 54.8255 51.9525 54.897 51.5147 54.897V54.8949ZM51.5063 54.1646C51.8283 54.1646 52.1251 54.1099 52.3966 54.0005C52.668 53.891 52.9017 53.7374 53.1016 53.5374C53.3015 53.3375 53.4573 53.1039 53.5688 52.8366C53.6804 52.5693 53.7372 52.2768 53.7372 51.959C53.7372 51.6412 53.6804 51.3507 53.5688 51.0855C53.4573 50.8204 53.3015 50.5867 53.1016 50.3847C52.9017 50.1827 52.6659 50.0269 52.3966 49.9175C52.1251 49.808 51.8283 49.7533 51.5063 49.7533C51.1843 49.7533 50.8938 49.808 50.6245 49.9175C50.3551 50.0269 50.1172 50.1827 49.9152 50.3847C49.7132 50.5867 49.5553 50.8204 49.4438 51.0855C49.3322 51.3507 49.2754 51.6433 49.2754 51.959C49.2754 52.2747 49.3322 52.5693 49.4438 52.8366C49.5553 53.1039 49.7132 53.3396 49.9152 53.5374C50.1172 53.7374 50.3551 53.891 50.6245 54.0005C50.896 54.1099 51.1885 54.1646 51.5063 54.1646Z" fill="white"/>
<path d="M55.8169 54.8275V49.0818H56.4904L60.2913 53.8004H59.9377V49.0818H60.7585V54.8275H60.0851L56.2841 50.1089H56.6377V54.8275H55.8169Z" fill="white"/>
<path d="M61.611 54.8275L64.2123 49.0818H65.0247L67.6344 54.8275H66.7736L64.4501 49.5406H64.7785L62.4549 54.8275H61.6089H61.611ZM62.7201 53.3921L62.9411 52.7355H66.1759L66.4137 53.3921H62.7201Z" fill="white"/>
<path d="M68.4888 54.8275V49.0818H69.3096V54.114H72.4202V54.8275H68.4888Z" fill="white"/>
<path d="M75.5728 54.8275V49.0818H77.9931C78.6055 49.0818 79.1464 49.2018 79.6136 49.4438C80.0809 49.6837 80.445 50.0205 80.7059 50.454C80.9648 50.8855 81.0953 51.3864 81.0953 51.9567C81.0953 52.5271 80.9648 53.0259 80.7059 53.4594C80.4471 53.8909 80.083 54.2276 79.6136 54.4697C79.1464 54.7096 78.6055 54.8317 77.9931 54.8317H75.5728V54.8275ZM76.3936 54.114H77.9447C78.4203 54.114 78.8328 54.0235 79.1801 53.8425C79.5273 53.6615 79.7967 53.4089 79.9883 53.0827C80.1798 52.7565 80.2745 52.3819 80.2745 51.9546C80.2745 51.5274 80.1777 51.1444 79.9883 50.8224C79.7967 50.5003 79.5273 50.2478 79.1801 50.0668C78.8328 49.8858 78.4203 49.7953 77.9447 49.7953H76.3936V54.1119V54.114Z" fill="white"/>
<path d="M82.3521 54.8275V49.0818H86.4077V49.7953H83.1729V54.1119H86.5213V54.8253H82.3521V54.8275ZM83.0992 52.2598V51.5632H86.0541V52.2598H83.0992Z" fill="white"/>
<path d="M90.4123 54.8949C89.9745 54.8949 89.5705 54.8233 89.2021 54.6781C88.8338 54.5329 88.5118 54.3287 88.2424 54.0636C87.9709 53.7984 87.7605 53.4869 87.6068 53.1312C87.4532 52.7755 87.3774 52.3841 87.3774 51.9568C87.3774 51.5296 87.4532 51.1381 87.6068 50.7824C87.7605 50.4268 87.9731 50.1153 88.2467 49.8501C88.5203 49.5849 88.8423 49.3787 89.2106 49.2334C89.5789 49.0882 89.983 49.0167 90.4207 49.0167C90.8585 49.0167 91.2731 49.0924 91.6477 49.2419C92.0223 49.3934 92.3423 49.6144 92.6032 49.9111L92.0708 50.4289C91.8519 50.1995 91.6056 50.029 91.332 49.9153C91.0584 49.8038 90.7659 49.747 90.4544 49.747C90.1429 49.747 89.8314 49.8017 89.5557 49.9111C89.28 50.0206 89.0401 50.1742 88.8381 50.3699C88.636 50.5678 88.4782 50.8014 88.3666 51.0708C88.2551 51.3423 88.1982 51.6348 88.1982 51.9526C88.1982 52.2704 88.2551 52.5651 88.3666 52.8345C88.4782 53.106 88.636 53.3396 88.8381 53.5353C89.0401 53.7331 89.28 53.8847 89.5557 53.9941C89.8314 54.1035 90.1324 54.1583 90.4544 54.1583C90.7764 54.1583 91.0584 54.1014 91.332 53.9899C91.6056 53.8783 91.8519 53.7037 92.0708 53.468L92.6032 53.9857C92.3401 54.2803 92.0223 54.5055 91.6477 54.6592C91.2731 54.8128 90.8606 54.8886 90.4123 54.8886V54.8949Z" fill="white"/>
<path d="M93.6958 54.8275V49.0818H94.5166V54.8275H93.6958Z" fill="white"/>
<path d="M97.9156 54.8949C97.4779 54.8949 97.0591 54.8275 96.6592 54.6928C96.2593 54.5581 95.9457 54.3856 95.7163 54.1709L96.0194 53.5311C96.2383 53.7226 96.5182 53.8805 96.857 54.0067C97.1959 54.133 97.5494 54.1961 97.9156 54.1961C98.2503 54.1961 98.5197 54.1583 98.728 54.0804C98.9364 54.0046 99.09 53.8994 99.1868 53.7647C99.2857 53.63 99.3342 53.4785 99.3342 53.3101C99.3342 53.1123 99.2689 52.9544 99.1405 52.8345C99.0122 52.7145 98.8459 52.6177 98.6396 52.544C98.4334 52.4704 98.2082 52.4051 97.9619 52.3504C97.7157 52.2957 97.4674 52.2304 97.219 52.1568C96.9707 52.0831 96.7434 51.9884 96.5371 51.8726C96.3309 51.7569 96.1667 51.6033 96.0404 51.4096C95.9141 51.216 95.851 50.9656 95.851 50.6583C95.851 50.351 95.9289 50.09 96.0846 49.8417C96.2404 49.5933 96.4803 49.3934 96.8065 49.2419C97.1327 49.0924 97.5473 49.0167 98.0503 49.0167C98.385 49.0167 98.7154 49.0609 99.0437 49.1472C99.372 49.2334 99.6562 49.3597 99.8982 49.5239L99.6267 50.1805C99.3805 50.0164 99.1195 49.8964 98.8459 49.8227C98.5723 49.7491 98.3071 49.7112 98.0503 49.7112C97.7283 49.7112 97.4631 49.7512 97.2548 49.8333C97.0464 49.9153 96.8949 50.0248 96.8002 50.1616C96.7034 50.2984 96.6571 50.452 96.6571 50.6204C96.6571 50.8224 96.7223 50.9845 96.8507 51.1045C96.9791 51.2244 97.1454 51.3212 97.3516 51.3928C97.5579 51.4643 97.783 51.5275 98.0293 51.5864C98.2755 51.6432 98.5239 51.7085 98.7722 51.78C99.0206 51.8516 99.2479 51.9442 99.4541 52.06C99.6604 52.1757 99.8245 52.3272 99.9508 52.5188C100.077 52.7103 100.14 52.9565 100.14 53.2575C100.14 53.5584 100.06 53.8173 99.9024 54.0657C99.7446 54.314 99.4983 54.5139 99.1679 54.6655C98.8375 54.817 98.4186 54.8907 97.9156 54.8907V54.8949Z" fill="white"/>
<path d="M101.338 54.8275V49.0818H102.159V54.8275H101.338Z" fill="white"/>
<path d="M106.475 54.8949C106.037 54.8949 105.631 54.8213 105.257 54.6739C104.882 54.5266 104.558 54.3204 104.284 54.0552C104.011 53.79 103.798 53.4785 103.644 53.1228C103.491 52.7671 103.415 52.3778 103.415 51.9569C103.415 51.5359 103.491 51.1466 103.644 50.7909C103.798 50.4352 104.011 50.1237 104.284 49.8585C104.558 49.5934 104.88 49.3871 105.252 49.2398C105.625 49.0925 106.033 49.0188 106.475 49.0188C106.917 49.0188 107.317 49.0904 107.69 49.2356C108.062 49.3808 108.384 49.5849 108.658 49.8522C108.931 50.1174 109.144 50.4289 109.293 50.7888C109.443 51.1466 109.518 51.538 109.518 51.959C109.518 52.3799 109.443 52.7777 109.293 53.1333C109.142 53.489 108.931 53.8005 108.658 54.0657C108.384 54.3309 108.062 54.5371 107.69 54.6802C107.317 54.8255 106.913 54.897 106.475 54.897V54.8949ZM106.469 54.1646C106.791 54.1646 107.088 54.1099 107.359 54.0005C107.631 53.891 107.864 53.7374 108.064 53.5374C108.264 53.3375 108.42 53.1039 108.531 52.8366C108.643 52.5693 108.7 52.2768 108.7 51.959C108.7 51.6412 108.643 51.3507 108.531 51.0855C108.42 50.8204 108.264 50.5867 108.064 50.3847C107.864 50.1827 107.628 50.0269 107.359 49.9175C107.088 49.808 106.791 49.7533 106.469 49.7533C106.147 49.7533 105.856 49.808 105.587 49.9175C105.318 50.0269 105.08 50.1827 104.878 50.3847C104.676 50.5867 104.518 50.8204 104.406 51.0855C104.295 51.3507 104.238 51.6433 104.238 51.959C104.238 52.2747 104.295 52.5693 104.406 52.8366C104.518 53.1039 104.676 53.3396 104.878 53.5374C105.08 53.7374 105.318 53.891 105.587 54.0005C105.859 54.1099 106.151 54.1646 106.469 54.1646Z" fill="white"/>
<path d="M110.777 54.8275V49.0818H111.45L115.251 53.8004H114.898V49.0818H115.719V54.8275H115.045L111.244 50.1089H111.598V54.8275H110.777Z" fill="white"/>
<path d="M118.781 54.8275L121.382 49.0818H122.195L124.804 54.8275H123.944L121.62 49.5406H121.948L119.625 54.8275H118.779H118.781ZM119.888 53.3921L120.109 52.7355H123.344L123.582 53.3921H119.888Z" fill="white"/>
<path d="M125.659 54.8275V49.0818H128.079C128.691 49.0818 129.232 49.2018 129.7 49.4438C130.167 49.6837 130.531 50.0205 130.792 50.454C131.051 50.8855 131.181 51.3864 131.181 51.9567C131.181 52.5271 131.051 53.0259 130.792 53.4594C130.533 53.8909 130.169 54.2276 129.7 54.4697C129.232 54.7096 128.691 54.8317 128.079 54.8317H125.659V54.8275ZM126.479 54.114H128.031C128.506 54.114 128.919 54.0235 129.266 53.8425C129.613 53.6615 129.883 53.4089 130.074 53.0827C130.266 52.7565 130.36 52.3819 130.36 51.9546C130.36 51.5274 130.264 51.1444 130.074 50.8224C129.883 50.5003 129.613 50.2478 129.266 50.0668C128.919 49.8858 128.506 49.7953 128.031 49.7953H126.479V54.1119V54.114Z" fill="white"/>
<path d="M133.915 54.8275L131.388 49.0818H132.274L134.597 54.3834H134.088L136.428 49.0818H137.249L134.73 54.8275H133.917H133.915Z" fill="white"/>
<path d="M137.979 54.8275V49.0818H138.8V54.8275H137.979Z" fill="white"/>
<path d="M142.197 54.8949C141.759 54.8949 141.34 54.8275 140.94 54.6928C140.541 54.5581 140.227 54.3856 139.998 54.1709L140.301 53.5311C140.52 53.7226 140.799 53.8805 141.138 54.0067C141.477 54.133 141.831 54.1961 142.197 54.1961C142.532 54.1961 142.801 54.1583 143.009 54.0804C143.218 54.0046 143.371 53.8994 143.468 53.7647C143.567 53.63 143.615 53.4785 143.615 53.3101C143.615 53.1123 143.55 52.9544 143.422 52.8345C143.293 52.7145 143.127 52.6177 142.921 52.544C142.715 52.4704 142.489 52.4051 142.243 52.3504C141.997 52.2957 141.749 52.2304 141.5 52.1568C141.252 52.0831 141.025 51.9884 140.818 51.8726C140.612 51.7569 140.448 51.6033 140.322 51.4096C140.195 51.216 140.132 50.9656 140.132 50.6583C140.132 50.351 140.21 50.09 140.366 49.8417C140.522 49.5933 140.762 49.3934 141.088 49.2419C141.414 49.0924 141.829 49.0167 142.332 49.0167C142.666 49.0167 142.997 49.0609 143.325 49.1472C143.653 49.2334 143.937 49.3597 144.179 49.5239L143.908 50.1805C143.662 50.0164 143.401 49.8964 143.127 49.8227C142.854 49.7491 142.588 49.7112 142.332 49.7112C142.01 49.7112 141.744 49.7512 141.536 49.8333C141.328 49.9153 141.176 50.0248 141.081 50.1616C140.985 50.2984 140.938 50.452 140.938 50.6204C140.938 50.8224 141.004 50.9845 141.132 51.1045C141.26 51.2244 141.427 51.3212 141.633 51.3928C141.839 51.4643 142.064 51.5275 142.311 51.5864C142.557 51.6432 142.805 51.7085 143.053 51.78C143.302 51.8516 143.529 51.9442 143.735 52.06C143.942 52.1757 144.106 52.3272 144.232 52.5188C144.358 52.7103 144.421 52.9565 144.421 53.2575C144.421 53.5584 144.341 53.8173 144.184 54.0657C144.026 54.314 143.78 54.5139 143.449 54.6655C143.119 54.817 142.7 54.8907 142.197 54.8907V54.8949Z" fill="white"/>
<path d="M148.214 54.8949C147.776 54.8949 147.37 54.8213 146.995 54.6739C146.621 54.5266 146.297 54.3204 146.023 54.0552C145.749 53.79 145.537 53.4785 145.383 53.1228C145.23 52.7671 145.154 52.3778 145.154 51.9569C145.154 51.5359 145.23 51.1466 145.383 50.7909C145.537 50.4352 145.749 50.1237 146.023 49.8585C146.297 49.5934 146.619 49.3871 146.991 49.2398C147.364 49.0925 147.772 49.0188 148.214 49.0188C148.656 49.0188 149.056 49.0904 149.428 49.2356C149.801 49.3808 150.123 49.5849 150.396 49.8522C150.67 50.1174 150.883 50.4289 151.032 50.7888C151.181 51.1466 151.257 51.538 151.257 51.959C151.257 52.3799 151.181 52.7777 151.032 53.1333C150.88 53.489 150.67 53.8005 150.396 54.0657C150.123 54.3309 149.801 54.5371 149.428 54.6802C149.056 54.8255 148.652 54.897 148.214 54.897V54.8949ZM148.206 54.1646C148.528 54.1646 148.824 54.1099 149.096 54.0005C149.367 53.891 149.601 53.7374 149.801 53.5374C150.001 53.3375 150.156 53.1039 150.268 52.8366C150.38 52.5693 150.436 52.2768 150.436 51.959C150.436 51.6412 150.38 51.3507 150.268 51.0855C150.156 50.8204 150.001 50.5867 149.801 50.3847C149.601 50.1827 149.365 50.0269 149.096 49.9175C148.824 49.808 148.528 49.7533 148.206 49.7533C147.884 49.7533 147.593 49.808 147.324 49.9175C147.054 50.0269 146.816 50.1827 146.614 50.3847C146.412 50.5867 146.255 50.8204 146.143 51.0855C146.031 51.3507 145.975 51.6433 145.975 51.959C145.975 52.2747 146.031 52.5693 146.143 52.8366C146.255 53.1039 146.412 53.3396 146.614 53.5374C146.816 53.7374 147.054 53.891 147.324 54.0005C147.595 54.1099 147.888 54.1646 148.206 54.1646Z" fill="white"/>
<path d="M152.516 54.8275V49.0818H154.757C155.502 49.0818 156.087 49.2586 156.514 49.6122C156.942 49.9658 157.154 50.4561 157.154 51.0854C157.154 51.5021 157.057 51.8578 156.868 52.1567C156.676 52.4555 156.403 52.6828 156.047 52.8428C155.691 53.0006 155.262 53.0806 154.759 53.0806H152.97L153.339 52.7039V54.8296H152.518L152.516 54.8275ZM153.336 52.7839L152.968 52.3819H154.732C155.258 52.3819 155.656 52.2682 155.925 52.0409C156.197 51.8136 156.331 51.4958 156.331 51.0854C156.331 50.675 156.197 50.3572 155.925 50.1341C155.654 49.9089 155.256 49.7974 154.732 49.7974H152.968L153.336 49.387V52.786V52.7839ZM156.357 54.8275L154.896 52.7418H155.774L157.251 54.8275H156.357Z" fill="white"/>
<path d="M159.787 54.8275V52.6281L159.977 53.1374L157.506 49.0818H158.383L160.461 52.5039H159.985L162.071 49.0818H162.883L160.421 53.1374L160.602 52.6281V54.8275H159.789H159.787Z" fill="white"/>
<path d="M167.593 54.8949C167.156 54.8949 166.737 54.8275 166.337 54.6928C165.937 54.5581 165.623 54.3856 165.394 54.1709L165.697 53.5311C165.916 53.7226 166.196 53.8805 166.535 54.0067C166.874 54.133 167.227 54.1961 167.593 54.1961C167.928 54.1961 168.197 54.1583 168.406 54.0804C168.614 54.0046 168.768 53.8994 168.865 53.7647C168.963 53.63 169.012 53.4785 169.012 53.3101C169.012 53.1123 168.947 52.9544 168.818 52.8345C168.69 52.7145 168.524 52.6177 168.317 52.544C168.111 52.4704 167.886 52.4051 167.64 52.3504C167.393 52.2957 167.145 52.2304 166.897 52.1568C166.648 52.0831 166.421 51.9884 166.215 51.8726C166.009 51.7569 165.844 51.6033 165.718 51.4096C165.592 51.216 165.529 50.9656 165.529 50.6583C165.529 50.351 165.607 50.09 165.762 49.8417C165.918 49.5933 166.158 49.3934 166.484 49.2419C166.81 49.0924 167.225 49.0167 167.728 49.0167C168.063 49.0167 168.393 49.0609 168.721 49.1472C169.05 49.2334 169.334 49.3597 169.576 49.5239L169.304 50.1805C169.058 50.0164 168.797 49.8964 168.524 49.8227C168.25 49.7491 167.985 49.7112 167.728 49.7112C167.406 49.7112 167.141 49.7512 166.933 49.8333C166.724 49.9153 166.573 50.0248 166.478 50.1616C166.381 50.2984 166.335 50.452 166.335 50.6204C166.335 50.8224 166.4 50.9845 166.528 51.1045C166.657 51.2244 166.823 51.3212 167.029 51.3928C167.236 51.4643 167.461 51.5275 167.707 51.5864C167.953 51.6432 168.202 51.7085 168.45 51.78C168.698 51.8516 168.926 51.9442 169.132 52.06C169.338 52.1757 169.502 52.3272 169.629 52.5188C169.755 52.7103 169.818 52.9565 169.818 53.2575C169.818 53.5584 169.738 53.8173 169.58 54.0657C169.422 54.314 169.176 54.5139 168.846 54.6655C168.515 54.817 168.096 54.8907 167.593 54.8907V54.8949Z" fill="white"/>
<path d="M172.28 54.8275V52.6281L172.47 53.1374L169.999 49.0818H170.877L172.954 52.5039H172.478L174.564 49.0818H175.376L172.914 53.1374L173.095 52.6281V54.8275H172.283H172.28Z" fill="white"/>
<path d="M177.755 54.8949C177.317 54.8949 176.898 54.8275 176.498 54.6928C176.098 54.5581 175.785 54.3856 175.555 54.1709L175.858 53.5311C176.077 53.7226 176.357 53.8805 176.696 54.0067C177.035 54.133 177.388 54.1961 177.755 54.1961C178.089 54.1961 178.359 54.1583 178.567 54.0804C178.775 54.0046 178.929 53.8994 179.026 53.7647C179.125 53.63 179.173 53.4785 179.173 53.3101C179.173 53.1123 179.108 52.9544 178.979 52.8345C178.851 52.7145 178.685 52.6177 178.479 52.544C178.272 52.4704 178.047 52.4051 177.801 52.3504C177.555 52.2957 177.306 52.2304 177.058 52.1568C176.81 52.0831 176.582 51.9884 176.376 51.8726C176.17 51.7569 176.006 51.6033 175.879 51.4096C175.753 51.216 175.69 50.9656 175.69 50.6583C175.69 50.351 175.768 50.09 175.923 49.8417C176.079 49.5933 176.319 49.3934 176.645 49.2419C176.972 49.0924 177.386 49.0167 177.889 49.0167C178.224 49.0167 178.554 49.0609 178.883 49.1472C179.211 49.2334 179.495 49.3597 179.737 49.5239L179.466 50.1805C179.219 50.0164 178.958 49.8964 178.685 49.8227C178.411 49.7491 178.146 49.7112 177.889 49.7112C177.567 49.7112 177.302 49.7512 177.094 49.8333C176.885 49.9153 176.734 50.0248 176.639 50.1616C176.542 50.2984 176.496 50.452 176.496 50.6204C176.496 50.8224 176.561 50.9845 176.69 51.1045C176.818 51.2244 176.984 51.3212 177.19 51.3928C177.397 51.4643 177.622 51.5275 177.868 51.5864C178.114 51.6432 178.363 51.7085 178.611 51.78C178.859 51.8516 179.087 51.9442 179.293 52.06C179.499 52.1757 179.663 52.3272 179.79 52.5188C179.916 52.7103 179.979 52.9565 179.979 53.2575C179.979 53.5584 179.899 53.8173 179.741 54.0657C179.583 54.314 179.337 54.5139 179.007 54.6655C178.676 54.817 178.258 54.8907 177.755 54.8907V54.8949Z" fill="white"/>
<path d="M182.235 54.8275V49.7953H180.265V49.0818H185.017V49.7953H183.047V54.8275H182.235Z" fill="white"/>
<path d="M185.914 54.8275V49.0818H189.97V49.7953H186.735V54.1119H190.083V54.8253H185.914V54.8275ZM186.661 52.2598V51.5632H189.616V52.2598H186.661Z" fill="white"/>
<path d="M191.414 54.8275V49.0818H192.087L194.665 53.4237H194.303L196.848 49.0818H197.521L197.53 54.8275H196.742L196.734 50.3215H196.923L194.659 54.1308H194.282L192.001 50.3215H192.207V54.8275H191.42H191.414Z" fill="white"/>
<path d="M195.85 6.88003V4.06825H194.762V3.78623H197.264V4.06825H196.176V6.88003H195.85Z" fill="white"/>
<path d="M197.786 6.87998V3.78619H198.056L199.47 6.20019H199.329L200.73 3.78619H201V6.87998H200.686V4.27656H200.762L199.472 6.48642H199.318L198.02 4.27656H198.104V6.87998H197.79H197.786Z" fill="white"/>
</svg>
